<?xml version='1.0' encoding='UTF-8' standalone='no'?>
<svg xmlns="http://www.w3.org/2000/svg" viewBox="0 0 296.31574 181.41692" width="98.000221mm" x="0in" version="1.2"  y="0in" id="0" height="59.999954mm" gorn="0">
    <desc  id="0.0">
        <referenceFile  id="0.0.0">LCD4x20.svg</referenceFile>
    </desc>
    <metadata  id="0.1">
        <rdf:RDF xmlns:rdf="http://www.w3.org/1999/02/22-rdf-syntax-ns#">
            <cc:Work rdf:about="" xmlns:rdf="http://www.w3.org/1999/02/22-rdf-syntax-ns#" xmlns:cc="http://creativecommons.org/ns#">
                <dc:format xmlns:dc="http://purl.org/dc/elements/1.1/">image/svg+xml</dc:format>
                <dc:type xmlns:rdf="http://www.w3.org/1999/02/22-rdf-syntax-ns#" xmlns:dc="http://purl.org/dc/elements/1.1/" rdf:resource="http://purl.org/dc/dcmitype/StillImage"/>
                <dc:title xmlns:dc="http://purl.org/dc/elements/1.1/"/>
            </cc:Work>
        </rdf:RDF>
    </metadata>
    <defs  id="0.2"/>
    <g  id="breadboard" gorn="0.3">
        <path style="color:#000000;clip-rule:nonzero;display:inline;overflow:visible;visibility:visible;opacity:1;isolation:auto;mix-blend-mode:normal;color-interpolation:sRGB;color-interpolation-filters:linearRGB;solid-color:#000000;solid-opacity:1;fill:#1f7a34;fill-opacity:1;fill-rule:nonzero;stroke:none;stroke-width:0.56720024;stroke-linecap:round;stroke-linejoin:miter;stroke-miterlimit:4;stroke-dasharray:none;stroke-dashoffset:0.5;stroke-opacity:1;color-rendering:auto;image-rendering:auto;shape-rendering:auto;text-rendering:auto;enable-background:accumulate"  id="rect1865" gorn="0.3.0" d="M 0,-1.7e-4 V 181.41708 H 296.31574 V -1.7e-4 Z M 7.5593779,4.7013942 A 2.8573239,2.8573239 0 0 1 10.415629,7.5592079 2.8573239,2.8573239 0 0 1 7.5593779,10.415459 2.8573239,2.8573239 0 0 1 4.7015642,7.5592079 2.8573239,2.8573239 0 0 1 7.5593779,4.7013942 Z m 281.1969821,0 a 2.8573239,2.8573239 0 0 1 2.85625,2.8578137 2.8573239,2.8573239 0 0 1 -2.85625,2.8562511 2.8573239,2.8573239 0 0 1 -2.85781,-2.8562511 2.8573239,2.8573239 0 0 1 2.85781,-2.8578137 z M 7.5593779,171.00145 a 2.8573239,2.8573239 0 0 1 2.8562511,2.85626 2.8573239,2.8573239 0 0 1 -2.8562511,2.85781 2.8573239,2.8573239 0 0 1 -2.8578137,-2.85781 2.8573239,2.8573239 0 0 1 2.8578137,-2.85626 z m 281.1969821,0 a 2.8573239,2.8573239 0 0 1 2.85625,2.85626 2.8573239,2.8573239 0 0 1 -2.85625,2.85781 2.8573239,2.8573239 0 0 1 -2.85781,-2.85781 2.8573239,2.8573239 0 0 1 2.85781,-2.85626 z"/>
        <g  id="frame" gorn="0.3.1">
            <path style="fill:#303030;stroke-width:1"  id="path3660" gorn="0.3.1.0" d="m 296.23403,114.67 c -1.0433,0 -1.89897,-1.01237 -1.89897,-2.2484 V 68.997217 c 0,-1.236035 0.85567,-2.248407 1.89897,-2.248407 h 0.081 V 33.031096 31.857282 h -0.99355 L 292.4091,28.411517 V 27.212478 H 291.39563 4.9180126 3.9045605 v 1.199039 L 0.99356436,31.855601 H 9.6122349e-6 V 33.029414 66.74881 H 0.0810523 c 1.044724,0 1.900396,1.012372 1.900396,2.248407 V 112.4216 c 0,1.23603 -0.855672,2.2484 -1.900396,2.2484 H 9.6122349e-6 v 33.71603 1.17381 H 0.99356436 l 2.91241664,3.44577 v 1.19904 h 1.013452 286.476197 1.01345 v -1.19904 l 2.91242,-3.44577 h 0.99355 V 148.38603 114.67 Z"/>
            <path style="fill:#1a1a1a;stroke-width:1"  id="path3672" gorn="0.3.1.1" d="m 286.32937,33.268579 c 0,-0.848822 -0.85567,-1.542893 -1.89897,-1.542893 H 12.55894 c -1.044724,0 -1.898976,0.695226 -1.898976,1.542893 v 0.851132 c 0,0.848822 0.855683,1.542894 1.898976,1.542894 h 271.87003 c 1.0433,0 1.89898,-0.695226 1.89898,-1.542894 v -0.851132 z"/>
            <path style="fill:#424242;stroke-width:1"  id="path3674" gorn="0.3.1.2" d="m 285.37988,34.647482 c 0,-0.558952 -0.61404,-1.016277 -1.36027,-1.016277 H 13.080586 c -0.747652,0 -1.360262,0.457325 -1.360262,1.016277 0,0.558953 0.61261,1.016277 1.360262,1.016277 H 284.01961 c 0.74623,-0.0012 1.36027,-0.458479 1.36027,-1.016277 z"/>
            <path style="fill:#1a1a1a;stroke-width:1"  id="path3678" gorn="0.3.1.3" d="m 286.32937,145.88815 c 0,-0.84767 -0.85567,-1.54289 -1.89897,-1.54289 H 12.55894 c -1.044724,0 -1.898976,0.69522 -1.898976,1.54289 v 0.85229 c 0,0.84767 0.855683,1.54289 1.898976,1.54289 h 271.87003 c 1.0433,0 1.89898,-0.69522 1.89898,-1.54289 v -0.85229 z"/>
            <path style="fill:#424242;stroke-width:1"  id="path3680" gorn="0.3.1.4" d="m 285.37988,147.26821 c 0,-0.55895 -0.61404,-1.01628 -1.36027,-1.01628 H 13.080586 c -0.747652,0 -1.360262,0.45733 -1.360262,1.01628 0,0.5578 0.61261,1.01512 1.360262,1.01512 H 284.01961 c 0.74623,0 1.36027,-0.45732 1.36027,-1.01512 z"/>
        </g>
        <g  id="display" gorn="0.3.2">
            <path style="fill:#0050dc;stroke-width:1.30914545"  id="path3664" gorn="0.3.2.0" d="m 262.31134,124.56987 c 0,3.78078 -2.16336,6.8743 -4.80854,6.8743 H 38.732327 c -2.643977,0 -4.807339,-3.09352 -4.807339,-6.8743 V 54.786558 c 0,-3.780779 2.163362,-6.8743 4.807339,-6.8743 H 257.5028 c 2.64518,0 4.80854,3.093521 4.80854,6.8743 z"/>
            <path style="opacity:0.2;fill:#22420d;stroke-width:1.30914545"  id="path3668" gorn="0.3.2.1" d="m 263.71793,54.753995 v 69.848435 c 0,-0.0103 0.002,-0.0206 0.002,-0.0326 V 54.786558 c 0,-0.012 -0.002,-0.02228 -0.002,-0.03256 z M 38.762138,47.912258 c -2.659166,0 -4.83715,3.095235 -4.83715,6.8743 v 69.783312 c 0,3.77906 2.177984,6.8743 4.83715,6.8743 h 2.805087 c -2.660371,0 -4.837149,-3.09524 -4.837149,-6.8743 V 57.079705 c 0,-3.780779 2.176778,-6.874299 4.837149,-6.874299 H 262.4589 c -0.88639,-1.395084 -2.15507,-2.293148 -3.5745,-2.293148 z"/>
            <path style="fill:none;stroke:#1a1a1a;stroke-width:1.84179378;stroke-opacity:0.4"  id="path3694" gorn="0.3.2.2" d="m 262.04839,123.70686 c 0,3.74418 -2.15851,6.81082 -4.79537,6.81082 H 38.977324 c -2.636859,0 -4.796572,-3.06664 -4.796572,-6.81082 V 54.568518 c 0,-3.744135 2.159713,-6.810759 4.796572,-6.810759 H 257.25302 c 2.63686,0 4.79537,3.066624 4.79537,6.810759 z"/>
        </g>
        <g  id="digits" gorn="0.3.3">
            <rect style="fill:#1a1a1a;fill-opacity:0.1;stroke-width:1" width="10.027" x="40.818913"  y="72.741539" id="rect3766" height="15.982141" gorn="0.3.3.0"/>
            <rect style="fill:#1a1a1a;fill-opacity:0.1;stroke-width:1" width="10.027" x="51.562912"  y="72.741539" id="rect3768" height="15.982141" gorn="0.3.3.1"/>
            <rect style="fill:#1a1a1a;fill-opacity:0.1;stroke-width:1" width="10.027" x="62.306911"  y="72.741539" id="rect3770" height="15.982141" gorn="0.3.3.2"/>
            <rect style="fill:#1a1a1a;fill-opacity:0.1;stroke-width:1" width="10.028" x="73.050911"  y="72.741539" id="rect3772" height="15.982141" gorn="0.3.3.3"/>
            <rect style="fill:#1a1a1a;fill-opacity:0.1;stroke-width:1" width="10.027" x="83.796913"  y="72.741539" id="rect3774" height="15.982141" gorn="0.3.3.4"/>
            <rect style="fill:#1a1a1a;fill-opacity:0.1;stroke-width:1" width="10.027" x="94.540916"  y="72.741539" id="rect3776" height="15.982141" gorn="0.3.3.5"/>
            <rect style="fill:#1a1a1a;fill-opacity:0.1;stroke-width:1" width="10.027" x="105.28491"  y="72.741539" id="rect3778" height="15.982141" gorn="0.3.3.6"/>
            <rect style="fill:#1a1a1a;fill-opacity:0.1;stroke-width:1" width="10.027" x="116.02892"  y="72.741539" id="rect3780" height="15.982141" gorn="0.3.3.7"/>
            <rect style="fill:#1a1a1a;fill-opacity:0.1;stroke-width:1" width="10.028" x="126.77292"  y="72.741539" id="rect3782" height="15.982141" gorn="0.3.3.8"/>
            <rect style="fill:#1a1a1a;fill-opacity:0.1;stroke-width:1" width="10.027" x="137.51791"  y="72.741539" id="rect3784" height="15.982141" gorn="0.3.3.9"/>
            <rect style="fill:#1a1a1a;fill-opacity:0.1;stroke-width:1" width="10.027" x="148.26192"  y="72.741539" id="rect3786" height="15.982141" gorn="0.3.3.10"/>
            <rect style="fill:#1a1a1a;fill-opacity:0.1;stroke-width:1" width="10.027" x="159.00592"  y="72.741539" id="rect3788" height="15.982141" gorn="0.3.3.11"/>
            <rect style="fill:#1a1a1a;fill-opacity:0.1;stroke-width:1" width="10.027" x="169.74991"  y="72.741539" id="rect3790" height="15.982141" gorn="0.3.3.12"/>
            <rect style="fill:#1a1a1a;fill-opacity:0.1;stroke-width:1" width="10.027" x="180.49391"  y="72.741539" id="rect3792" height="15.982141" gorn="0.3.3.13"/>
            <rect style="fill:#1a1a1a;fill-opacity:0.1;stroke-width:1" width="10.027" x="191.23792"  y="72.741539" id="rect3794" height="15.982141" gorn="0.3.3.14"/>
            <rect style="fill:#1a1a1a;fill-opacity:0.1;stroke-width:1" width="10.027" x="201.98291"  y="72.741539" id="rect3796" height="15.982141" gorn="0.3.3.15"/>
            <rect style="fill:#1a1a1a;fill-opacity:0.1;stroke-width:1" width="10.027" x="40.818913"  y="56.088081" id="rect3798" height="15.982141" gorn="0.3.3.16"/>
            <rect style="fill:#1a1a1a;fill-opacity:0.1;stroke-width:1" width="10.027" x="51.562912"  y="56.088081" id="rect3800" height="15.982141" gorn="0.3.3.17"/>
            <rect style="fill:#1a1a1a;fill-opacity:0.1;stroke-width:1" width="10.027" x="62.306911"  y="56.088081" id="rect3802" height="15.982141" gorn="0.3.3.18"/>
            <rect style="fill:#1a1a1a;fill-opacity:0.1;stroke-width:1" width="10.028" x="73.050911"  y="56.088081" id="rect3804" height="15.982141" gorn="0.3.3.19"/>
            <rect style="fill:#1a1a1a;fill-opacity:0.1;stroke-width:1" width="10.027" x="83.796913"  y="56.088081" id="rect3806" height="15.982141" gorn="0.3.3.20"/>
            <rect style="fill:#1a1a1a;fill-opacity:0.1;stroke-width:1" width="10.027" x="94.540916"  y="56.088081" id="rect3808" height="15.982141" gorn="0.3.3.21"/>
            <rect style="fill:#1a1a1a;fill-opacity:0.1;stroke-width:1" width="10.027" x="105.28491"  y="56.088081" id="rect3810" height="15.982141" gorn="0.3.3.22"/>
            <rect style="fill:#1a1a1a;fill-opacity:0.1;stroke-width:1" width="10.027" x="116.02892"  y="56.088081" id="rect3812" height="15.982141" gorn="0.3.3.23"/>
            <rect style="fill:#1a1a1a;fill-opacity:0.1;stroke-width:1" width="10.028" x="126.77292"  y="56.088081" id="rect3814" height="15.982141" gorn="0.3.3.24"/>
            <rect style="fill:#1a1a1a;fill-opacity:0.1;stroke-width:1" width="10.027" x="137.51791"  y="56.088081" id="rect3816" height="15.982141" gorn="0.3.3.25"/>
            <rect style="fill:#1a1a1a;fill-opacity:0.1;stroke-width:1" width="10.027" x="148.26192"  y="56.088081" id="rect3818" height="15.982141" gorn="0.3.3.26"/>
            <rect style="fill:#1a1a1a;fill-opacity:0.1;stroke-width:1" width="10.027" x="159.00592"  y="56.088081" id="rect3820" height="15.982141" gorn="0.3.3.27"/>
            <rect style="fill:#1a1a1a;fill-opacity:0.1;stroke-width:1" width="10.027" x="169.74991"  y="56.088081" id="rect3822" height="15.982141" gorn="0.3.3.28"/>
            <rect style="fill:#1a1a1a;fill-opacity:0.1;stroke-width:1" width="10.027" x="180.49391"  y="56.088081" id="rect3824" height="15.982141" gorn="0.3.3.29"/>
            <rect style="fill:#1a1a1a;fill-opacity:0.1;stroke-width:1" width="10.027" x="191.23792"  y="56.088081" id="rect3826" height="15.982141" gorn="0.3.3.30"/>
            <rect style="fill:#1a1a1a;fill-opacity:0.1;stroke-width:1" width="10.027" x="201.98291"  y="56.088081" id="rect3828" height="15.982141" gorn="0.3.3.31"/>
            <rect style="fill:#1a1a1a;fill-opacity:0.1;stroke-width:1" width="10.027" x="212.7298"  y="72.741539" id="rect1479" height="15.982141" gorn="0.3.3.32"/>
            <rect style="fill:#1a1a1a;fill-opacity:0.1;stroke-width:1" width="10.027" x="223.4738"  y="72.741539" id="rect1481" height="15.982141" gorn="0.3.3.33"/>
            <rect style="fill:#1a1a1a;fill-opacity:0.1;stroke-width:1" width="10.027" x="234.2178"  y="72.741539" id="rect1483" height="15.982141" gorn="0.3.3.34"/>
            <rect style="fill:#1a1a1a;fill-opacity:0.1;stroke-width:1" width="10.027" x="244.9628"  y="72.741539" id="rect1485" height="15.982141" gorn="0.3.3.35"/>
            <rect style="fill:#1a1a1a;fill-opacity:0.1;stroke-width:1" width="10.027" x="212.7298"  y="56.088081" id="rect1487" height="15.982141" gorn="0.3.3.36"/>
            <rect style="fill:#1a1a1a;fill-opacity:0.1;stroke-width:1" width="10.027" x="223.4738"  y="56.088081" id="rect1489" height="15.982141" gorn="0.3.3.37"/>
            <rect style="fill:#1a1a1a;fill-opacity:0.1;stroke-width:1" width="10.027" x="234.2178"  y="56.088081" id="rect1491" height="15.982141" gorn="0.3.3.38"/>
            <rect style="fill:#1a1a1a;fill-opacity:0.1;stroke-width:1" width="10.027" x="244.9628"  y="56.088081" id="rect1493" height="15.982141" gorn="0.3.3.39"/>
            <rect style="fill:#1a1a1a;fill-opacity:0.1;stroke-width:1.01046836" width="10.027" x="40.818913"  y="106.28928" id="rect4017" height="16.318506" gorn="0.3.3.40"/>
            <rect style="fill:#1a1a1a;fill-opacity:0.1;stroke-width:1.01046836" width="10.027" x="51.562912"  y="106.28928" id="rect4019" height="16.318506" gorn="0.3.3.41"/>
            <rect style="fill:#1a1a1a;fill-opacity:0.1;stroke-width:1.01046836" width="10.027" x="62.306911"  y="106.28928" id="rect4021" height="16.318506" gorn="0.3.3.42"/>
            <rect style="fill:#1a1a1a;fill-opacity:0.1;stroke-width:1.01046836" width="10.028" x="73.050911"  y="106.28928" id="rect4023" height="16.318506" gorn="0.3.3.43"/>
            <rect style="fill:#1a1a1a;fill-opacity:0.1;stroke-width:1.01046836" width="10.027" x="83.796913"  y="106.28928" id="rect4025" height="16.318506" gorn="0.3.3.44"/>
            <rect style="fill:#1a1a1a;fill-opacity:0.1;stroke-width:1.01046836" width="10.027" x="94.540916"  y="106.28928" id="rect4027" height="16.318506" gorn="0.3.3.45"/>
            <rect style="fill:#1a1a1a;fill-opacity:0.1;stroke-width:1.01046836" width="10.027" x="105.28491"  y="106.28928" id="rect4029" height="16.318506" gorn="0.3.3.46"/>
            <rect style="fill:#1a1a1a;fill-opacity:0.1;stroke-width:1.01046836" width="10.027" x="116.02892"  y="106.28928" id="rect4031" height="16.318506" gorn="0.3.3.47"/>
            <rect style="fill:#1a1a1a;fill-opacity:0.1;stroke-width:1.01046836" width="10.028" x="126.77292"  y="106.28928" id="rect4033" height="16.318506" gorn="0.3.3.48"/>
            <rect style="fill:#1a1a1a;fill-opacity:0.1;stroke-width:1.01046836" width="10.027" x="137.51791"  y="106.28928" id="rect4035" height="16.318506" gorn="0.3.3.49"/>
            <rect style="fill:#1a1a1a;fill-opacity:0.1;stroke-width:1.01046836" width="10.027" x="148.26192"  y="106.28928" id="rect4037" height="16.318506" gorn="0.3.3.50"/>
            <rect style="fill:#1a1a1a;fill-opacity:0.1;stroke-width:1.01046836" width="10.027" x="159.00592"  y="106.28928" id="rect4039" height="16.318506" gorn="0.3.3.51"/>
            <rect style="fill:#1a1a1a;fill-opacity:0.1;stroke-width:1.01046836" width="10.027" x="169.74991"  y="106.28928" id="rect4041" height="16.318506" gorn="0.3.3.52"/>
            <rect style="fill:#1a1a1a;fill-opacity:0.1;stroke-width:1.01046836" width="10.027" x="180.49391"  y="106.28928" id="rect4043" height="16.318506" gorn="0.3.3.53"/>
            <rect style="fill:#1a1a1a;fill-opacity:0.1;stroke-width:1.01046836" width="10.027" x="191.23792"  y="106.28928" id="rect4045" height="16.318506" gorn="0.3.3.54"/>
            <rect style="fill:#1a1a1a;fill-opacity:0.1;stroke-width:1.01046836" width="10.027" x="201.98291"  y="106.28928" id="rect4047" height="16.318506" gorn="0.3.3.55"/>
            <rect style="fill:#1a1a1a;fill-opacity:0.1;stroke-width:1.01046836" width="10.027" x="40.818913"  y="89.285324" id="rect4049" height="16.318506" gorn="0.3.3.56"/>
            <rect style="fill:#1a1a1a;fill-opacity:0.1;stroke-width:1.01046836" width="10.027" x="51.562912"  y="89.285324" id="rect4051" height="16.318506" gorn="0.3.3.57"/>
            <rect style="fill:#1a1a1a;fill-opacity:0.1;stroke-width:1.01046836" width="10.027" x="62.306911"  y="89.285324" id="rect4053" height="16.318506" gorn="0.3.3.58"/>
            <rect style="fill:#1a1a1a;fill-opacity:0.1;stroke-width:1.01046836" width="10.028" x="73.050911"  y="89.285324" id="rect4055" height="16.318506" gorn="0.3.3.59"/>
            <rect style="fill:#1a1a1a;fill-opacity:0.1;stroke-width:1.01046836" width="10.027" x="83.796913"  y="89.285324" id="rect4057" height="16.318506" gorn="0.3.3.60"/>
            <rect style="fill:#1a1a1a;fill-opacity:0.1;stroke-width:1.01046836" width="10.027" x="94.540916"  y="89.285324" id="rect4059" height="16.318506" gorn="0.3.3.61"/>
            <rect style="fill:#1a1a1a;fill-opacity:0.1;stroke-width:1.01046836" width="10.027" x="105.28491"  y="89.285324" id="rect4061" height="16.318506" gorn="0.3.3.62"/>
            <rect style="fill:#1a1a1a;fill-opacity:0.1;stroke-width:1.01046836" width="10.027" x="116.02892"  y="89.285324" id="rect4063" height="16.318506" gorn="0.3.3.63"/>
            <rect style="fill:#1a1a1a;fill-opacity:0.1;stroke-width:1.01046836" width="10.028" x="126.77292"  y="89.285324" id="rect4065" height="16.318506" gorn="0.3.3.64"/>
            <rect style="fill:#1a1a1a;fill-opacity:0.1;stroke-width:1.01046836" width="10.027" x="137.51791"  y="89.285324" id="rect4067" height="16.318506" gorn="0.3.3.65"/>
            <rect style="fill:#1a1a1a;fill-opacity:0.1;stroke-width:1.01046836" width="10.027" x="148.26192"  y="89.285324" id="rect4069" height="16.318506" gorn="0.3.3.66"/>
            <rect style="fill:#1a1a1a;fill-opacity:0.1;stroke-width:1.01046836" width="10.027" x="159.00592"  y="89.285324" id="rect4071" height="16.318506" gorn="0.3.3.67"/>
            <rect style="fill:#1a1a1a;fill-opacity:0.1;stroke-width:1.01046836" width="10.027" x="169.74991"  y="89.285324" id="rect4073" height="16.318506" gorn="0.3.3.68"/>
            <rect style="fill:#1a1a1a;fill-opacity:0.1;stroke-width:1.01046836" width="10.027" x="180.49391"  y="89.285324" id="rect4075" height="16.318506" gorn="0.3.3.69"/>
            <rect style="fill:#1a1a1a;fill-opacity:0.1;stroke-width:1.01046836" width="10.027" x="191.23792"  y="89.285324" id="rect4077" height="16.318506" gorn="0.3.3.70"/>
            <rect style="fill:#1a1a1a;fill-opacity:0.1;stroke-width:1.01046836" width="10.027" x="201.98291"  y="89.285324" id="rect4079" height="16.318506" gorn="0.3.3.71"/>
            <rect style="fill:#1a1a1a;fill-opacity:0.1;stroke-width:1.01046836" width="10.027" x="212.7298"  y="106.28928" id="rect1495" height="16.318506" gorn="0.3.3.72"/>
            <rect style="fill:#1a1a1a;fill-opacity:0.1;stroke-width:1.01046836" width="10.027" x="223.4738"  y="106.28928" id="rect1497" height="16.318506" gorn="0.3.3.73"/>
            <rect style="fill:#1a1a1a;fill-opacity:0.1;stroke-width:1.01046836" width="10.027" x="234.2178"  y="106.28928" id="rect1499" height="16.318506" gorn="0.3.3.74"/>
            <rect style="fill:#1a1a1a;fill-opacity:0.1;stroke-width:1.01046836" width="10.027" x="244.9628"  y="106.28928" id="rect1501" height="16.318506" gorn="0.3.3.75"/>
            <rect style="fill:#1a1a1a;fill-opacity:0.1;stroke-width:1.01046836" width="10.027" x="212.7298"  y="89.285324" id="rect1503" height="16.318506" gorn="0.3.3.76"/>
            <rect style="fill:#1a1a1a;fill-opacity:0.1;stroke-width:1.01046836" width="10.027" x="223.4738"  y="89.285324" id="rect1505" height="16.318506" gorn="0.3.3.77"/>
            <rect style="fill:#1a1a1a;fill-opacity:0.1;stroke-width:1.01046836" width="10.027" x="234.2178"  y="89.285324" id="rect1507" height="16.318506" gorn="0.3.3.78"/>
            <rect style="fill:#1a1a1a;fill-opacity:0.1;stroke-width:1.01046836" width="10.027" x="244.9628"  y="89.285324" id="rect1509" height="16.318506" gorn="0.3.3.79"/>
        </g>
        <g  id="pads" gorn="0.3.4">
            <path style="fill:#9a916c"  id="path3646" gorn="0.3.4.0" d="m 2.5985579,7.5583903 c 0,2.7369997 2.223,4.9609997 4.96,4.9609997 2.7420001,0 4.9610001,-2.224 4.9610001,-4.9609997 0,-2.741 -2.219,-4.96 -4.9610001,-4.96 -2.737,0 -4.96,2.219 -4.96,4.96 z m 2.107,0 c 0,-1.576 1.278,-2.854 2.854,-2.854 1.576,0 2.8540001,1.277 2.8540001,2.854 0,1.577 -1.2790001,2.8529997 -2.8550001,2.8529997 -1.575,0 -2.853,-1.2769997 -2.853,-2.8529997 z"/>
            <path style="fill:#9a916c"  id="path3698" gorn="0.3.4.1" d="m 283.79501,7.5583903 c 0,2.7369997 2.223,4.9609997 4.961,4.9609997 2.742,0 4.961,-2.224 4.961,-4.9609997 0,-2.741 -2.219,-4.96 -4.961,-4.96 -2.73899,0 -4.961,2.219 -4.961,4.96 z m 2.105,0 c 0,-1.576 1.279,-2.854 2.85501,-2.854 1.576,0 2.85399,1.277 2.85399,2.854 0,1.577 -1.277,2.8539997 -2.85399,2.8539997 -1.577,0 -2.85501,-1.2779997 -2.85501,-2.8539997 z"/>
            <path style="fill:#9a916c"  id="path3658" gorn="0.3.4.2" d="m 2.5985579,173.85767 c 0,2.737 2.223,4.961 4.96,4.961 2.7420001,0 4.9610001,-2.224 4.9610001,-4.961 0,-2.741 -2.219,-4.96 -4.9610001,-4.96 -2.737,0 -4.96,2.219 -4.96,4.96 z m 2.106,0 c 0,-1.576 1.278,-2.854 2.854,-2.854 1.576,0 2.8540001,1.277 2.8540001,2.854 0,1.575 -1.2780001,2.854 -2.8540001,2.854 -1.575,0 -2.854,-1.278 -2.854,-2.854 z"/>
            <path style="fill:#9a916c"  id="path3652" gorn="0.3.4.3" d="m 293.71701,173.85867 c 0,-2.737 -2.223,-4.961 -4.961,-4.961 -2.742,0 -4.961,2.224 -4.961,4.961 0,2.741 2.219,4.96 4.961,4.96 2.739,0 4.961,-2.218 4.961,-4.96 z m -2.105,0 c 0,1.576 -1.279,2.854 -2.855,2.854 -1.576,0 -2.854,-1.277 -2.854,-2.854 0,-1.575 1.277,-2.854 2.854,-2.854 1.577,0 2.855,1.279 2.855,2.854 z"/>
            <path style="fill:#9a916c"  id="path3702" gorn="0.3.4.4" d="M 27.826232,-0.01242943 V 4.7375706 c 0,1.33 1.078,2.41 2.41,2.41 1.33,0 2.41,-1.08 2.41,-2.41 v -4.75000003 z m 2.41,4.85400003 c -0.766,0 -1.387,-0.621 -1.387,-1.387 0,-0.766 0.621,-1.387 1.387,-1.387 0.766,0 1.387,0.621 1.387,1.387 0,0.766 -0.622,1.387 -1.387,1.387 z"/>
            <path style="fill:#9a916c"  id="path3706" gorn="0.3.4.5" d="M 35.506235,-0.01242943 V 4.7375706 c 0,1.33 1.078,2.41 2.41,2.41 1.33,0 2.41,-1.08 2.41,-2.41 v -4.75000003 z m 2.41,4.85400003 c -0.766,0 -1.387,-0.621 -1.387,-1.387 0,-0.766 0.621,-1.387 1.387,-1.387 0.766,0 1.387,0.621 1.387,1.387 0,0.766 -0.621,1.387 -1.387,1.387 z"/>
            <path style="fill:#9a916c"  id="path3710" gorn="0.3.4.6" d="M 43.186238,-0.01242943 V 4.7375706 c 0,1.33 1.078,2.41 2.41,2.41 1.33,0 2.41,-1.08 2.41,-2.41 v -4.75000003 z m 2.41,4.85400003 c -0.766,0 -1.387,-0.621 -1.387,-1.387 0,-0.766 0.621,-1.387 1.387,-1.387 0.766,0 1.387,0.621 1.387,1.387 0,0.766 -0.621,1.387 -1.387,1.387 z"/>
            <path style="fill:#9a916c"  id="path3714" gorn="0.3.4.7" d="M 50.866241,-0.01242943 V 4.7375706 c 0,1.33 1.078,2.41 2.41,2.41 1.33,0 2.41,-1.08 2.41,-2.41 v -4.75000003 z m 2.41,4.85400003 c -0.766,0 -1.387,-0.621 -1.387,-1.387 0,-0.766 0.621,-1.387 1.387,-1.387 0.766,0 1.387,0.621 1.387,1.387 0,0.766 -0.621,1.387 -1.387,1.387 z"/>
            <path style="fill:#9a916c"  id="path3718" gorn="0.3.4.8" d="M 58.546244,-0.01242943 V 4.7375706 c 0,1.33 1.078,2.41 2.41,2.41 1.33,0 2.41,-1.08 2.41,-2.41 v -4.75000003 z m 2.41,4.85400003 c -0.766,0 -1.387,-0.621 -1.387,-1.387 0,-0.766 0.621,-1.387 1.387,-1.387 0.766,0 1.387,0.621 1.387,1.387 0,0.766 -0.621,1.387 -1.387,1.387 z"/>
            <path style="fill:#9a916c"  id="path3722" gorn="0.3.4.9" d="M 66.226247,-0.01242943 V 4.7375706 c 0,1.33 1.078,2.41 2.41,2.41 1.33,0 2.41,-1.08 2.41,-2.41 v -4.75000003 z m 2.41,4.85400003 c -0.766,0 -1.387,-0.621 -1.387,-1.387 0,-0.766 0.621,-1.387 1.387,-1.387 0.766,0 1.387,0.621 1.387,1.387 0,0.766 -0.622,1.387 -1.387,1.387 z"/>
            <path style="fill:#9a916c"  id="path3726" gorn="0.3.4.10" d="M 73.90625,-0.01242942 V 4.7375706 c 0,1.33 1.078,2.41 2.41,2.41 1.33,0 2.41,-1.08 2.41,-2.41 v -4.75000002 z m 2.41,4.85400002 c -0.766,0 -1.387,-0.621 -1.387,-1.387 0,-0.766 0.621,-1.387 1.387,-1.387 0.766,0 1.387,0.621 1.387,1.387 0,0.766 -0.621,1.387 -1.387,1.387 z"/>
            <path style="fill:#9a916c"  id="path3730" gorn="0.3.4.11" d="M 81.586253,-0.01242943 V 4.7375706 c 0,1.33 1.078,2.41 2.41,2.41 1.33,0 2.41,-1.08 2.41,-2.41 v -4.75000003 z m 2.41,4.85400003 c -0.766,0 -1.387,-0.621 -1.387,-1.387 0,-0.766 0.621,-1.387 1.387,-1.387 0.766,0 1.387,0.621 1.387,1.387 0,0.766 -0.621,1.387 -1.387,1.387 z"/>
            <path style="fill:#9a916c"  id="path3734" gorn="0.3.4.12" d="M 89.266256,-0.01242943 V 4.7375706 c 0,1.33 1.078,2.41 2.41,2.41 1.33,0 2.41,-1.08 2.41,-2.41 v -4.75000003 z m 2.41,4.85400003 c -0.766,0 -1.387,-0.621 -1.387,-1.387 0,-0.766 0.621,-1.387 1.387,-1.387 0.766,0 1.387,0.621 1.387,1.387 0,0.766 -0.621,1.387 -1.387,1.387 z"/>
            <path style="fill:#9a916c"  id="path3738" gorn="0.3.4.13" d="M 96.946259,-0.01242943 V 4.7375706 c 0,1.33 1.078,2.41 2.41,2.41 1.330001,0 2.410001,-1.08 2.410001,-2.41 v -4.75000003 z m 2.41,4.85400003 c -0.766,0 -1.387,-0.621 -1.387,-1.387 0,-0.766 0.621,-1.387 1.387,-1.387 0.766001,0 1.387001,0.621 1.387001,1.387 0,0.766 -0.621,1.387 -1.387001,1.387 z"/>
            <path style="fill:#9a916c"  id="path3742" gorn="0.3.4.14" d="M 104.62626,-0.01242943 V 4.7375706 c 0,1.33 1.078,2.41 2.41,2.41 1.33,0 2.41,-1.08 2.41,-2.41 v -4.75000003 z m 2.41,4.85400003 c -0.766,0 -1.387,-0.621 -1.387,-1.387 0,-0.766 0.621,-1.387 1.387,-1.387 0.766,0 1.387,0.621 1.387,1.387 0,0.766 -0.622,1.387 -1.387,1.387 z"/>
            <path style="fill:#9a916c"  id="path3746" gorn="0.3.4.15" d="M 112.30626,-0.01242943 V 4.7375706 c 0,1.33 1.07801,2.41 2.41,2.41 1.33,0 2.41,-1.08 2.41,-2.41 v -4.75000003 z m 2.41,4.85400003 c -0.766,0 -1.387,-0.621 -1.387,-1.387 0,-0.766 0.621,-1.387 1.387,-1.387 0.766,0 1.387,0.621 1.387,1.387 0,0.766 -0.621,1.387 -1.387,1.387 z"/>
            <path style="fill:#9a916c"  id="path3750" gorn="0.3.4.16" d="M 119.98627,-0.01242943 V 4.7375706 c 0,1.33 1.078,2.41 2.41,2.41 1.32999,0 2.40999,-1.08 2.40999,-2.41 v -4.75000003 z m 2.41,4.85400003 c -0.76601,0 -1.387,-0.621 -1.387,-1.387 0,-0.766 0.62099,-1.387 1.387,-1.387 0.766,0 1.387,0.621 1.387,1.387 0,0.766 -0.621,1.387 -1.387,1.387 z"/>
            <path style="fill:#9a916c"  id="path3754" gorn="0.3.4.17" d="M 127.66577,-0.01242943 V 4.7375706 c 0,1.33 1.078,2.41 2.41,2.41 1.33,0 2.411,-1.08 2.411,-2.41 v -4.75000003 z m 2.41,4.85400003 c -0.766,0 -1.387,-0.621 -1.387,-1.387 0,-0.766 0.621,-1.387 1.387,-1.387 0.766,0 1.387,0.621 1.387,1.387 0,0.766 -0.621,1.387 -1.387,1.387 z"/>
            <path style="fill:#9a916c"  id="path3758" gorn="0.3.4.18" d="M 135.34628,-0.01242943 V 4.7375706 c 0,1.33 1.078,2.41 2.41,2.41 1.32999,0 2.41,-1.08 2.41,-2.41 v -4.75000003 z m 2.41,4.85400003 c -0.76601,0 -1.387,-0.621 -1.387,-1.387 0,-0.766 0.62099,-1.387 1.387,-1.387 0.76599,0 1.38699,0.621 1.38699,1.387 0,0.766 -0.621,1.387 -1.38699,1.387 z"/>
            <path style="fill:#9a916c"  id="path3762" gorn="0.3.4.19" d="M 143.02627,-0.01242943 V 4.7375706 c 0,1.33 1.078,2.41 2.41,2.41 1.33,0 2.41,-1.08 2.41,-2.41 v -4.75000003 z m 2.41,4.85400003 c -0.766,0 -1.387,-0.621 -1.387,-1.387 0,-0.766 0.621,-1.387 1.387,-1.387 0.766,0 1.387,0.621 1.387,1.387 0,0.766 -0.621,1.387 -1.387,1.387 z"/>
            <circle  cx="30.236233" id="connector0pin" gorn="0.3.4.20" cy="3.4466255" r="1.387"/>
            <circle  cx="37.916233" id="connector1pin" gorn="0.3.4.21" cy="3.4466255" r="1.387"/>
            <circle  cx="45.596237" id="connector2pin" gorn="0.3.4.22" cy="3.4466255" r="1.387"/>
            <circle  cx="53.276237" id="connector3pin" gorn="0.3.4.23" cy="3.4466255" r="1.387"/>
            <circle  cx="60.956242" id="connector4pin" gorn="0.3.4.24" cy="3.4466255" r="1.387"/>
            <circle  cx="68.636246" id="connector5pin" gorn="0.3.4.25" cy="3.4466255" r="1.387"/>
            <circle  cx="76.315407" id="connector6pin" gorn="0.3.4.26" cy="3.4466255" r="1.387"/>
            <circle  cx="83.996254" id="connector7pin" gorn="0.3.4.27" cy="3.4466255" r="1.387"/>
            <circle  cx="91.676254" id="connector8pin" gorn="0.3.4.28" cy="3.4466255" r="1.387"/>
            <circle  cx="99.356262" id="connector9pin" gorn="0.3.4.29" cy="3.4466255" r="1.387"/>
            <circle  cx="107.03626" id="connector10pin" gorn="0.3.4.30" cy="3.4466255" r="1.387"/>
            <circle  cx="114.71627" id="connector11pin" gorn="0.3.4.31" cy="3.4466255" r="1.387"/>
            <circle  cx="122.39626" id="connector12pin" gorn="0.3.4.32" cy="3.4466255" r="1.387"/>
            <circle  cx="130.07626" id="connector13pin" gorn="0.3.4.33" cy="3.4466257" r="1.387"/>
            <circle  cx="137.75627" id="connector14pin" gorn="0.3.4.34" cy="3.4466257" r="1.387"/>
            <circle  cx="145.43628" id="connector15pin" gorn="0.3.4.35" cy="3.4466257" r="1.387"/>
        </g>
    </g>
</svg>
